<svg width="28" height="28" viewBox="0 0 28 28" fill="none" xmlns="http://www.w3.org/2000/svg">
<mask id="mask0_634_646" style="mask-type:alpha" maskUnits="userSpaceOnUse" x="0" y="0" width="28" height="28">
<rect width="28" height="28" fill="#D9D9D9"/>
</mask>
<g mask="url(#mask0_634_646)">
<path d="M6.8237 19.9487C7.81537 19.1904 8.9237 18.5924 10.1487 18.1549C11.3737 17.7174 12.657 17.4987 13.9987 17.4987C15.3404 17.4987 16.6237 17.7174 17.8487 18.1549C19.0737 18.5924 20.182 19.1904 21.1737 19.9487C21.8543 19.1515 22.3841 18.2473 22.7633 17.2362C23.1425 16.2251 23.332 15.1459 23.332 13.9987C23.332 11.4126 22.423 9.2105 20.6049 7.39245C18.7869 5.57439 16.5848 4.66536 13.9987 4.66536C11.4126 4.66536 9.2105 5.57439 7.39245 7.39245C5.57439 9.2105 4.66536 11.4126 4.66536 13.9987C4.66536 15.1459 4.85495 16.2251 5.23411 17.2362C5.61328 18.2473 6.14314 19.1515 6.8237 19.9487ZM13.9987 15.1654C12.8515 15.1654 11.8841 14.7716 11.0966 13.9841C10.3091 13.1966 9.91537 12.2293 9.91537 11.082C9.91537 9.93481 10.3091 8.96745 11.0966 8.17995C11.8841 7.39245 12.8515 6.9987 13.9987 6.9987C15.1459 6.9987 16.1133 7.39245 16.9008 8.17995C17.6883 8.96745 18.082 9.93481 18.082 11.082C18.082 12.2293 17.6883 13.1966 16.9008 13.9841C16.1133 14.7716 15.1459 15.1654 13.9987 15.1654ZM13.9987 25.6654C12.3848 25.6654 10.8681 25.3591 9.4487 24.7466C8.02925 24.1341 6.79453 23.3029 5.74453 22.2529C4.69453 21.2029 3.86328 19.9681 3.25078 18.5487C2.63828 17.1293 2.33203 15.6126 2.33203 13.9987C2.33203 12.3848 2.63828 10.8681 3.25078 9.4487C3.86328 8.02925 4.69453 6.79453 5.74453 5.74453C6.79453 4.69453 8.02925 3.86328 9.4487 3.25078C10.8681 2.63828 12.3848 2.33203 13.9987 2.33203C15.6126 2.33203 17.1293 2.63828 18.5487 3.25078C19.9681 3.86328 21.2029 4.69453 22.2529 5.74453C23.3029 6.79453 24.1341 8.02925 24.7466 9.4487C25.3591 10.8681 25.6654 12.3848 25.6654 13.9987C25.6654 15.6126 25.3591 17.1293 24.7466 18.5487C24.1341 19.9681 23.3029 21.2029 22.2529 22.2529C21.2029 23.3029 19.9681 24.1341 18.5487 24.7466C17.1293 25.3591 15.6126 25.6654 13.9987 25.6654ZM13.9987 23.332C15.0293 23.332 16.0015 23.1813 16.9154 22.88C17.8293 22.5786 18.6654 22.1459 19.4237 21.582C18.6654 21.0181 17.8293 20.5855 16.9154 20.2841C16.0015 19.9827 15.0293 19.832 13.9987 19.832C12.9681 19.832 11.9959 19.9827 11.082 20.2841C10.1681 20.5855 9.33203 21.0181 8.5737 21.582C9.33203 22.1459 10.1681 22.5786 11.082 22.88C11.9959 23.1813 12.9681 23.332 13.9987 23.332ZM13.9987 12.832C14.5043 12.832 14.9223 12.6668 15.2529 12.3362C15.5834 12.0056 15.7487 11.5876 15.7487 11.082C15.7487 10.5765 15.5834 10.1584 15.2529 9.82787C14.9223 9.49731 14.5043 9.33203 13.9987 9.33203C13.4931 9.33203 13.0751 9.49731 12.7445 9.82787C12.414 10.1584 12.2487 10.5765 12.2487 11.082C12.2487 11.5876 12.414 12.0056 12.7445 12.3362C13.0751 12.6668 13.4931 12.832 13.9987 12.832Z" fill="#FCB850"/>
</g>
</svg>
